# xmcd CD database file
# Copyright (C) 1993-1998 Ti Kan
#
# Track frame offsets:
#	150
#	12245
#	31399
#	44371
#	59421
#	75910
#	88949
#	97974
#	111354
#	124753
#	138490
#	157334
#	168554
#	194991
#	205325
#	216497
#	236207
#	261054
#	279266
#	292111
#	304858
#	319047
#
# Disc length: 4438 seconds
#
# Revision: 1
# Processed by: cddbd v1.4b41PL1 Copyright (c) Steve Scherf et al.
# Submitted via: CDValet v3.31 - Copyright (c) 1997 Greg Leichner
#
DISCID=54115416
DTITLE=Ray Charles - I Can't Stop Loving You * Ingredients In A
DTITLE=Recipe For Soul
DYEAR=1900
DGENRE=
TTITLE0=Together again
TTITLE1=I can't stop loving you
TTITLE2=Makin' beleive
TTITLE3=Here we go again
TTITLE4=Georgia on my mind
TTITLE5=Unchain my heart
TTITLE6=Hit the road Jack
TTITLE7=Crying time
TTITLE8=Take these chains from my heart
TTITLE9=Bend One (D.Ellington and Johnny Hodges)
TTITLE10=Over The Rainbow
TTITLE11=Ol' Man Time
TTITLE12=In The Evening (When The Sun Goes Down)
TTITLE13=Busted
TTITLE14=A Stranger In Town
TTITLE15=That Lucky Old Sun
TTITLE16=Ol' Man River
TTITLE17=You'll Never Walk Alone
TTITLE18=Something's Wrong
TTITLE19=The Brightest Smile In Town
TTITLE20=Worried Life Blues
TTITLE21=My Baby (I Love Her, Yes I Do)
EXTD=Composite CD\n1. Ray Charles " I Can't Stop Loving You" Su
EXTD=ccess,19? ?, EEU (Holland?]\n2. Duke Ellington and Johnny 
EXTD=Hodges "Side By Side" 1959 Verve, USA - 19??, West Germany\n
EXTD=3. Ray Charles "Ingredients In A Recipe For Soul" 1963, AB
EXTD=C-Paramount - 1990, DCC, USA
EXTT0=
EXTT1=
EXTT2=
EXTT3=
EXTT4=
EXTT5=
EXTT6=
EXTT7=
EXTT8=
EXTT9=
EXTT10=
EXTT11=
EXTT12=
EXTT13=
EXTT14=
EXTT15=
EXTT16=
EXTT17=
EXTT18=
EXTT19=
EXTT20=
EXTT21=
PLAYORDER=
